<?xml version="1.0" encoding="UTF-8" standalone="no"?>
<!-- Created with Inkscape (http://www.inkscape.org/) -->

<svg
   width="512"
   height="512"
   viewBox="0 0 512 512"
   version="1.1"
   id="svg1"
   inkscape:version="1.3.2 (091e20ef0f, 2023-11-25, custom)"
   sodipodi:docname="logo.svg"
   inkscape:export-filename="logo.png"
   inkscape:export-xdpi="96"
   inkscape:export-ydpi="96"
   xmlns:inkscape="http://www.inkscape.org/namespaces/inkscape"
   xmlns:sodipodi="http://sodipodi.sourceforge.net/DTD/sodipodi-0.dtd"
   xmlns:xlink="http://www.w3.org/1999/xlink"
   xmlns="http://www.w3.org/2000/svg"
   xmlns:svg="http://www.w3.org/2000/svg">
  <sodipodi:namedview
     id="namedview1"
     pagecolor="#505050"
     bordercolor="#eeeeee"
     borderopacity="1"
     inkscape:showpageshadow="0"
     inkscape:pageopacity="0"
     inkscape:pagecheckerboard="0"
     inkscape:deskcolor="#505050"
     inkscape:document-units="px"
     inkscape:zoom="0.5"
     inkscape:cx="-88"
     inkscape:cy="191"
     inkscape:window-width="2560"
     inkscape:window-height="1380"
     inkscape:window-x="0"
     inkscape:window-y="0"
     inkscape:window-maximized="1"
     inkscape:current-layer="layer1" />
  <defs
     id="defs1">
    <linearGradient
       id="linearGradient9"
       inkscape:collect="always">
      <stop
         style="stop-color:#ffefd6;stop-opacity:1;"
         offset="0"
         id="stop9" />
      <stop
         style="stop-color:#ffdba7;stop-opacity:1;"
         offset="1"
         id="stop10" />
    </linearGradient>
    <linearGradient
       id="linearGradient7"
       inkscape:collect="always">
      <stop
         style="stop-color:#ffdba7;stop-opacity:1;"
         offset="0"
         id="stop7" />
      <stop
         style="stop-color:#fff4e2;stop-opacity:1;"
         offset="1"
         id="stop8" />
    </linearGradient>
    <linearGradient
       inkscape:collect="always"
       xlink:href="#linearGradient7"
       id="linearGradient8"
       x1="250.7049"
       y1="381"
       x2="253.7951"
       y2="131.5"
       gradientUnits="userSpaceOnUse"
       gradientTransform="matrix(1.3792706,0,0,1.3792706,-97.288613,-97.093298)" />
    <linearGradient
       inkscape:collect="always"
       xlink:href="#linearGradient9"
       id="linearGradient10"
       x1="251.93965"
       y1="50.939034"
       x2="255.11061"
       y2="459.64676"
       gradientUnits="userSpaceOnUse" />
  </defs>
  <g
     inkscape:label="Layer 1"
     inkscape:groupmode="layer"
     id="layer1">
    <rect
       style="fill:#181818;fill-opacity:1;stroke:url(#linearGradient10);stroke-width:14;stroke-dasharray:none;stroke-opacity:1"
       id="rect8"
       width="404"
       height="404"
       x="54"
       y="54"
       ry="117.96518" />
    <path
       id="path2"
       style="fill:url(#linearGradient8);stroke:none;stroke-width:36.1701;stroke-dasharray:none;stroke-opacity:1"
       d="M 251.86504,85.769167 215.6223,137.75344 c -42.65338,21.81252 -125.69198,86.13912 -95.21091,187.65324 9.00764,-42.82459 18.73875,-82.25337 43.04083,-105.21803 17.17774,27.30834 6.14434,96.04864 2.77951,155.15732 27.85981,-50.04208 35.24247,-148.53775 24.87537,-187.71549 13.3759,-10.94169 36.41828,0.0113 54.29578,30.86691 -48.00931,85.91556 -3.84515,203.92984 2.75808,207.73344 -15.88772,-44.77916 -9.31573,-140.48694 13.04919,-177.72388 7.47404,-2.93704 19.62586,18.8366 23.69543,25.19593 -6.28607,36.62869 -13.8427,87.89517 18.65517,133.57374 -7.80282,-46.2213 -8.30802,-72.33414 -0.23436,-91.7242 13.76862,22.64635 27.67956,45.13378 38.75427,59.94172 -3.15185,-27.04333 -10.95439,-57.1711 -20.16644,-85.54442 0.0243,-0.0229 0.0456,-0.0471 0.0702,-0.0699 l -0.12123,-0.0834 C 303.46932,235.19877 255.78091,176.39204 253.95048,176.3534 c 26.53651,-11.74973 60.80751,19.40515 64.09273,34.23729 14.21482,29.98088 20.09998,84.54067 65.04662,118.36137 -23.01983,-44.18785 -31.20374,-69.30104 -28.0272,-91.1046 16.1662,15.27311 27.37307,30.1815 43.09951,49.90427 -0.4378,-7.81598 -33.35873,-114.30403 -115.22029,-146.02218 z"
       sodipodi:nodetypes="ccccccccccccccccccccccc" />
  </g>
</svg>
