<?xml version="1.0" encoding="UTF-8" standalone="no"?>
<!-- Created with Inkscape (http://www.inkscape.org/) -->

<svg
   width="512"
   height="512"
   viewBox="0 0 512 512"
   version="1.1"
   id="svg1"
   inkscape:version="1.3.2 (091e20ef0f, 2023-11-25, custom)"
   sodipodi:docname="logo.svg"
   inkscape:export-filename="logo.png"
   inkscape:export-xdpi="96"
   inkscape:export-ydpi="96"
   xmlns:inkscape="http://www.inkscape.org/namespaces/inkscape"
   xmlns:sodipodi="http://sodipodi.sourceforge.net/DTD/sodipodi-0.dtd"
   xmlns:xlink="http://www.w3.org/1999/xlink"
   xmlns="http://www.w3.org/2000/svg"
   xmlns:svg="http://www.w3.org/2000/svg">
  <sodipodi:namedview
     id="namedview1"
     pagecolor="#505050"
     bordercolor="#eeeeee"
     borderopacity="1"
     inkscape:showpageshadow="0"
     inkscape:pageopacity="0"
     inkscape:pagecheckerboard="0"
     inkscape:deskcolor="#505050"
     inkscape:document-units="px"
     inkscape:zoom="0.35355339"
     inkscape:cx="311.12698"
     inkscape:cy="-108.89444"
     inkscape:window-width="1444"
     inkscape:window-height="1243"
     inkscape:window-x="0"
     inkscape:window-y="0"
     inkscape:window-maximized="0"
     inkscape:current-layer="layer1" />
  <defs
     id="defs1">
    <linearGradient
       id="linearGradient7"
       inkscape:collect="always">
      <stop
         style="stop-color:#ffe0b3;stop-opacity:1;"
         offset="0"
         id="stop7" />
      <stop
         style="stop-color:#fff4e2;stop-opacity:1;"
         offset="1"
         id="stop8" />
    </linearGradient>
    <linearGradient
       inkscape:collect="always"
       xlink:href="#linearGradient7"
       id="linearGradient8"
       x1="250.7049"
       y1="381"
       x2="253.7951"
       y2="131.5"
       gradientUnits="userSpaceOnUse"
       gradientTransform="matrix(1.1827054,0,0,1.1827054,-45.945689,-38.028148)" />
  </defs>
  <g
     inkscape:label="Layer 1"
     inkscape:groupmode="layer"
     id="layer1">
    <rect
       style="fill:#181818;fill-opacity:1;stroke:#ffebcc;stroke-width:6;stroke-dasharray:none;stroke-opacity:1"
       id="rect8"
       width="404"
       height="404"
       x="54"
       y="54"
       ry="117.96518" />
    <path
       id="path2"
       style="fill:url(#linearGradient8);stroke:none;stroke-width:31.0154;stroke-dasharray:none;stroke-opacity:1"
       d="m 253.44872,118.77386 -31.07765,44.5758 c -36.57469,18.70394 -107.77914,73.8631 -81.64206,160.91005 7.72393,-36.72151 16.06825,-70.53113 36.90693,-90.22301 14.72968,23.41653 5.26868,82.36038 2.38341,133.04524 23.88937,-42.91038 30.21992,-127.36905 21.33027,-160.96341 11.46966,-9.38234 31.22817,0.008 46.55788,26.46795 -41.16731,73.6714 -3.29717,174.86699 2.365,178.12853 -13.62348,-38.39752 -7.9881,-120.4656 11.1895,-152.39574 6.40889,-2.5185 16.82891,16.1521 20.3185,21.60514 -5.3902,31.4086 -11.86992,75.36889 15.99654,114.53763 -6.69081,-39.63414 -7.12399,-62.02553 -0.20094,-78.65224 11.80641,19.41893 23.73485,38.7016 33.23124,51.3992 -2.70267,-23.18929 -9.39323,-49.02342 -17.29244,-73.35316 0.0208,-0.0196 0.0391,-0.0403 0.0602,-0.0599 l -0.10398,-0.0714 c -15.77249,-46.81672 -56.66464,-97.24267 -58.23422,-97.2758 22.75471,-10.07524 52.14159,16.63963 54.95863,29.358 12.18902,25.70818 17.23547,72.49243 55.77659,101.49322 -19.7392,-37.89048 -26.7568,-59.42468 -24.03295,-78.12092 13.8623,13.09646 23.47203,25.88019 36.95723,42.79222 -0.37541,-6.70211 -28.60464,-98.01412 -98.79978,-125.212 z"
       sodipodi:nodetypes="ccccccccccccccccccccccc" />
  </g>
</svg>
